<?xml version="1.0" encoding="UTF-8"?>
<svg id="Vieux__moulin__scrool" data-name="Vieux__moulin__scrool" xmlns="http://www.w3.org/2000/svg" viewBox="0 0 190 130">
  <defs>
    <style>
      .cls-1 {
        fill: #1d1d1b;
        font-family: MyriadPro-Regular, 'Myriad Pro';
        font-size: 12px;
      }

      .cls-2 {
        fill: #93d0d0;
      }

      .cls-3 {
        fill: #64c1c4;
      }

      .cls-4 {
        fill: #3462ac;
      }

      .cls-5 {
        letter-spacing: 0em;
      }

      .cls-6 {
        letter-spacing: 0em;
      }
    </style>
  </defs>
  <polygon class="cls-2" points="95.3 77.14 40.35 28.61 46.2 23.45 101.15 71.98 95.3 77.14"/>
  <polygon class="cls-2" points="89.45 71.98 144.41 23.45 150.26 28.61 95.3 77.14 89.45 71.98"/>
  <polygon class="cls-3" points="95.66 100.47 27.04 39.88 34.35 33.43 102.96 94.02 95.66 100.47"/>
  <polygon class="cls-3" points="88.35 94.02 156.97 33.43 164.27 39.88 95.66 100.47 88.35 94.02"/>
  <polygon class="cls-4" points="95 120.98 20.12 54.85 28.09 47.81 102.97 113.94 95 120.98"/>
  <polygon class="cls-4" points="87.03 113.94 161.91 47.81 169.88 54.85 95 120.98 87.03 113.94"/>
  <text class="cls-1" transform="translate(73.34 25.16)"><tspan x="0" y="0">SC</tspan><tspan class="cls-6" x="12.88" y="0">R</tspan><tspan class="cls-5" x="19.37" y="0">OOL</tspan></text>
</svg>